HIERARCHY
ROOT Hips
{
    OFFSET 0.000000 0.000000 0.000000
    CHANNELS 6 Xposition Yposition Zposition Zrotation Xrotation Yrotation
    JOINT Spine
    {
        OFFSET -0.000000 14.517291 0.000000
        CHANNELS 3 Zrotation Xrotation Yrotation
        JOINT Spine1
        {
            OFFSET -0.000000 37.558300 0.000000
            CHANNELS 3 Zrotation Xrotation Yrotation
            JOINT Neck
            {
                OFFSET -0.000000 37.404057 3.400369
                CHANNELS 3 Zrotation Xrotation Yrotation
                JOINT Head
                {
                    OFFSET -0.000000 24.785618 -3.540803
                    CHANNELS 3 Zrotation Xrotation Yrotation
                    End Site
                    {
                        OFFSET -0.000000 35.408028 0.000000
                    }
                }
            }
            JOINT LeftShoulder
            {
                OFFSET 6.992933 33.973492 -0.192664
                CHANNELS 3 Zrotation Xrotation Yrotation
                JOINT LeftArm
                {
                    OFFSET 21.527611 0.000000 0.000000
                    CHANNELS 3 Zrotation Xrotation Yrotation
                    JOINT LeftForeArm
                    {
                        OFFSET 56.353916 0.000000 0.000000
                        CHANNELS 3 Zrotation Xrotation Yrotation
                        JOINT LeftHand
                        {
                            OFFSET 47.774071 0.000000 0.000000
                            CHANNELS 3 Zrotation Xrotation Yrotation
                            End Site
                            {
                                OFFSET 26.556021 0.000000 0.000000
                            }
                        }
                    }
                }
            }
            JOINT RightShoulder
            {
                OFFSET -7.065357 33.973492 -0.192664
                CHANNELS 3 Zrotation Xrotation Yrotation
                JOINT RightArm
                {
                    OFFSET -21.527611 0.000000 0.000000
                    CHANNELS 3 Zrotation Xrotation Yrotation
                    JOINT RightForeArm
                    {
                        OFFSET -56.353916 0.000000 0.000000
                        CHANNELS 3 Zrotation Xrotation Yrotation
                        JOINT RightHand
                        {
                            OFFSET -47.774071 0.000000 0.000000
                            CHANNELS 3 Zrotation Xrotation Yrotation
                            End Site
                            {
                                OFFSET -26.556021 0.000000 0.000000
                            }
                        }
                    }
                }
            }
        }
    }
    JOINT LeftUpLeg
    {
        OFFSET 17.704014 0.000000 0.000000
        CHANNELS 3 Zrotation Xrotation Yrotation
        JOINT LeftLeg
        {
            OFFSET -0.000000 -81.181816 0.000000
            CHANNELS 3 Zrotation Xrotation Yrotation
            JOINT LeftFoot
            {
                OFFSET -0.000000 -62.821102 0.000000
                CHANNELS 3 Zrotation Xrotation Yrotation
                JOINT LeftToeBase
                {
                    OFFSET -0.000000 -11.507608 26.556021
                    CHANNELS 3 Zrotation Xrotation Yrotation
                    End Site
                    {
                        OFFSET -0.000000 0.000000 7.081605
                    }
                }
            }
        }
    }
    JOINT RightUpLeg
    {
        OFFSET -17.704014 0.000000 0.000000
        CHANNELS 3 Zrotation Xrotation Yrotation
        JOINT RightLeg
        {
            OFFSET -0.000000 -81.181816 0.000000
            CHANNELS 3 Zrotation Xrotation Yrotation
            JOINT RightFoot
            {
                OFFSET -0.000000 -62.821102 0.000000
                CHANNELS 3 Zrotation Xrotation Yrotation
                JOINT RightToeBase
                {
                    OFFSET -0.000000 -11.507608 26.556021
                    CHANNELS 3 Zrotation Xrotation Yrotation
                    End Site
                    {
                        OFFSET -0.000000 0.000000 7.081605
                    }
                }
            }
        }
    }
}
MOTION
Frames:    7
Frame Time:    0.008333
13.746768    163.585388    19.579620    -0.052743    -2.918139    -5.135472    2.700365    -2.639762    8.725431    -2.301508    2.751095    2.942523    5.581083    -1.253587    -4.087980    3.507074    6.671288    -4.851731    3.177258    2.461731    -7.722738    -43.963467    15.858214    -40.534294    -6.211166    -19.921009    -125.398087    0.272965    -30.826569    -2.825851    -12.978578    3.222247    5.577219    31.374266    -16.949287    74.362633    -1.346502    -15.173464    32.999027    8.945180    -11.367594    42.781906    3.639940    -7.819317    -13.830206    -10.301911    13.256639    -18.641516    3.692521    -2.645796    38.057575    0.000000    0.000000    0.000000    -1.389944    5.833275    -13.053957    3.370705    14.558165    -5.362828    3.081435    -14.757607    -10.477127    0.000000    0.000000    0.000000    
13.803196    163.584106    19.667149    -0.054789    -2.899622    -5.168335    2.690910    -2.624037    8.729122    -2.307449    2.741914    2.943905    5.585314    -1.261406    -4.080255    3.515490    6.664028    -4.843797    3.192042    2.457935    -7.745273    -43.975677    15.863013    -40.546059    -6.180099    -19.982540    -125.397133    0.277307    -30.830170    -2.815369    -12.986399    3.208154    5.590768    31.429625    -16.995043    74.377174    -1.310623    -15.148793    32.998383    8.944748    -11.354927    42.761631    3.615893    -7.833666    -13.814753    -10.309071    13.332793    -18.633648    3.758173    -2.692028    38.057308    0.000000    0.000000    0.000000    -1.413148    5.850652    -13.064074    3.366217    14.535282    -5.349518    3.078076    -14.741282    -10.451377    0.000000    0.000000    0.000000    
13.863209    163.582275    19.761747    -0.057219    -2.885172    -5.220933    2.733288    -2.650826    8.712026    -2.411380    2.834887    2.942120    5.655618    -1.322605    -4.035892    3.500821    6.660761    -4.813098    3.260243    2.428517    -7.674328    -43.993156    15.803202    -40.606312    -6.189880    -19.927195    -125.375420    0.285614    -30.791523    -2.818351    -12.925551    3.112545    5.676045    31.412138    -17.020330    74.328987    -1.303979    -15.170653    33.004101    8.982521    -11.365541    42.748264    3.596054    -7.840183    -13.806828    -10.331747    13.407453    -18.612040    3.830796    -2.732496    38.071770    0.000000    0.000000    0.000000    -1.435988    5.876160    -13.053957    3.357988    14.500134    -5.383327    3.121072    -14.726634    -10.394229    0.000000    0.000000    0.000000    
13.928376    163.581161    19.854168    -0.059661    -2.855083    -5.266683    2.728800    -2.635101    8.718031    -2.417281    2.814446    2.944013    5.653674    -1.353425    -4.023338    3.497534    6.686055    -4.802296    3.252698    2.417695    -7.654200    -43.978397    15.812542    -40.627182    -6.180282    -19.961731    -125.360847    0.225324    -30.802711    -2.842478    -12.928192    3.097438    5.685301    31.417517    -17.039631    74.344002    -1.288648    -15.200374    33.004501    9.035306    -11.379833    42.747936    3.568608    -7.870008    -13.775852    -10.336036    13.502040    -18.640503    3.909685    -2.771780    38.112091    0.000000    0.000000    0.000000    -1.457093    5.889579    -13.058331    3.343813    14.458386    -5.390873    3.171477    -14.713997    -10.339918    0.000000    0.000000    0.000000    
13.998783    163.581390    19.949551    -0.059676    -2.829477    -5.313740    2.730705    -2.625869    8.738099    -2.432462    2.814342    2.951126    5.660773    -1.351979    -4.016502    3.484477    6.673081    -4.796959    3.242916    2.397612    -7.675774    -43.951099    15.830906    -40.634384    -6.132685    -20.054455    -125.338928    0.180045    -30.801374    -2.855813    -12.931938    3.113477    5.663331    31.420273    -17.073229    74.397888    -1.286509    -15.248927    32.983109    9.032499    -11.433086    42.725800    3.537870    -7.895464    -13.769755    -10.353242    13.592484    -18.653437    3.978088    -2.820156    38.167229    0.000000    0.000000    0.000000    -1.487191    5.905174    -13.062870    3.328879    14.428156    -5.372514    3.215672    -14.704600    -10.301037    0.000000    0.000000    0.000000    
14.065710    163.580322    20.048809    -0.061224    -2.806674    -5.349875    2.718608    -2.612754    8.755677    -2.436597    2.819154    2.957380    5.701084    -1.382988    -4.000205    3.437802    6.679318    -4.792199    3.242672    2.392360    -7.687992    -43.949085    15.778509    -40.657444    -6.133794    -20.017410    -125.325333    0.214446    -30.767200    -2.836633    -12.932397    3.079890    5.637311    31.399302    -17.058624    74.401161    -1.310912    -15.298449    32.985920    9.019288    -11.481225    42.727455    3.508144    -7.926636    -13.771944    -10.363628    13.706055    -18.731470    4.051273    -2.866320    38.262489    0.000000    0.000000    0.000000    -1.504772    5.932386    -13.062090    3.304428    14.378448    -5.388746    3.277745    -14.683288    -10.247971    0.000000    0.000000    0.000000    
14.141962    163.584656    20.136513    -0.063340    -2.765179    -5.395097    2.663891    -2.545419    8.798709    -2.353160    2.688550    2.967945    5.655272    -1.360790    -4.015361    3.435925    6.685770    -4.799823    3.183288    2.433021    -7.731898    -43.930126    15.756282    -40.673946    -6.128340    -20.025038    -125.314949    0.203206    -30.762312    -2.848887    -13.012560    3.108117    5.581929    31.395380    -17.022909    74.415001    -1.356114    -15.364568    32.990726    9.045196    -11.523395    42.748222    3.476153    -7.986213    -13.790673    -10.389578    13.823851    -18.733734    4.124485    -2.907783    38.328815    0.000000    0.000000    0.000000    -1.527350    5.920432    -13.050114    3.286008    14.360819    -5.402614    3.315531    -14.666652    -10.211506    0.000000    0.000000    0.000000    
